<svg id="svg" version="1.1" width="20" viewBox="0 0 400 366.79389312977094"
     xmlns="http://www.w3.org/2000/svg" xmlns:xlink="http://www.w3.org/1999/xlink">
    <g id="svgg">
        <path id="path0"
              d="M237.982 29.607 C 232.509 30.296,218.642 32.453,205.138 34.714 C 190.092 37.233,184.525 38.208,165.505 41.653 C 161.771 42.329,156.239 43.319,153.211 43.851 C 146.324 45.064,139.137 46.347,131.560 47.719 C 103.207 52.850,98.113 53.660,90.092 54.312 C 83.446 54.853,81.898 55.077,81.516 55.551 C 81.165 55.989,75.865 65.538,70.901 74.679 C 69.257 77.706,66.602 83.239,65.000 86.972 C 63.399 90.706,61.746 94.505,61.328 95.413 C 60.247 97.758,60.267 97.792,63.211 98.648 C 76.061 102.380,80.864 102.674,131.560 102.821 C 167.008 102.925,169.247 102.867,184.954 101.451 C 197.861 100.288,211.436 98.196,229.124 94.646 C 242.444 91.972,252.625 88.821,254.243 86.872 C 255.120 85.815,255.164 82.194,254.352 77.982 C 253.924 75.761,253.414 72.706,253.219 71.193 C 253.024 69.679,252.457 65.550,251.959 62.018 C 251.461 58.486,250.875 53.532,250.656 51.009 C 249.693 39.881,247.820 33.773,244.433 30.712 C 242.878 29.308,241.807 29.124,237.982 29.607 "
              stroke="none" fill="#d30413" fill-rule="evenodd"></path>
        <path id="path1"
              d="M171.193 103.934 C 168.972 104.129,160.261 104.315,151.835 104.346 C 139.405 104.393,136.514 104.495,136.514 104.889 C 136.514 105.346,137.565 110.358,139.684 120.000 C 147.652 156.262,157.817 179.693,173.036 196.881 C 177.628 202.066,179.151 203.977,186.491 213.761 C 193.058 222.516,195.177 224.773,197.178 225.149 C 201.431 225.947,242.240 215.638,249.908 211.828 L 251.927 210.826 252.038 208.671 C 252.335 202.926,242.171 188.872,223.472 169.174 C 206.459 151.251,199.142 140.124,181.846 105.872 L 180.734 103.670 177.982 103.624 C 176.468 103.599,173.413 103.738,171.193 103.934 "
              stroke="none" fill="#fbf3f3" fill-rule="evenodd"></path>
        <path id="path2"
              d="M305.865 53.011 C 299.799 54.114,294.227 58.465,285.880 68.620 C 283.664 71.316,282.203 74.169,281.265 77.636 C 280.375 80.925,280.731 80.932,283.773 77.687 C 289.727 71.335,295.998 69.497,305.138 71.424 C 316.273 73.771,323.968 72.243,326.100 67.259 C 329.696 58.856,318.209 50.768,305.865 53.011 M15.413 68.114 C 11.206 68.809,9.762 69.206,7.523 70.284 C 2.179 72.856,0.787 75.488,2.070 80.596 C 3.321 85.575,4.741 86.151,11.746 84.526 C 22.100 82.123,33.868 83.359,42.152 87.721 C 46.260 89.884,46.271 89.880,44.845 86.834 C 39.346 75.082,25.714 66.412,15.413 68.114 M314.800 92.119 C 308.784 93.134,303.497 95.920,298.500 100.708 C 296.324 102.793,296.498 102.969,299.971 102.197 C 307.086 100.614,313.919 101.799,317.982 105.321 C 324.476 110.951,331.583 110.228,332.665 103.828 C 333.374 99.632,326.494 93.362,319.841 92.142 C 317.442 91.703,317.271 91.702,314.800 92.119 M27.216 109.035 C 18.083 110.554,8.209 118.078,5.144 125.856 C 2.876 131.610,7.369 136.524,14.481 136.068 C 19.284 135.759,21.013 133.968,22.194 128.073 C 24.128 118.425,29.616 114.308,42.747 112.658 C 46.664 112.165,46.761 112.108,44.948 111.350 C 39.922 109.250,32.081 108.226,27.216 109.035 "
              stroke="none" fill="#13b2fa" fill-rule="evenodd"></path>
        <path id="path3"
              d="M161.835 0.236 C 130.293 4.047,106.221 18.180,87.869 43.660 C 87.073 44.765,86.092 46.119,85.688 46.669 C 85.284 47.219,84.057 48.916,82.960 50.440 C 81.863 51.964,80.832 53.211,80.667 53.211 C 80.503 53.211,79.983 53.995,79.512 54.954 C 78.513 56.988,77.971 57.930,74.813 63.119 C 72.179 67.449,65.587 80.566,62.826 86.972 C 57.787 98.664,57.525 99.450,58.666 99.450 C 59.009 99.450,58.113 103.239,56.406 109.013 C 54.340 115.999,52.074 130.589,51.138 142.936 C 49.342 166.614,50.925 188.752,57.225 228.073 C 57.645 230.697,58.404 235.486,58.910 238.716 C 60.895 251.360,62.992 264.180,63.893 269.174 C 65.487 278.007,65.789 279.463,66.099 279.798 C 66.277 279.990,66.422 280.603,66.422 281.160 C 66.422 281.718,66.749 283.790,67.148 285.766 C 67.548 287.741,68.967 294.972,70.302 301.835 C 71.637 308.697,73.035 315.633,73.409 317.248 C 73.783 318.862,74.371 321.422,74.717 322.936 C 75.064 324.450,75.468 325.936,75.616 326.239 C 75.764 326.541,76.571 329.679,77.409 333.211 C 81.966 352.406,84.649 359.514,87.990 361.240 C 99.472 367.171,138.967 368.630,182.936 364.748 C 187.376 364.356,192.000 363.948,193.211 363.842 C 197.672 363.453,208.818 362.144,219.862 360.714 C 225.134 360.031,229.342 357.037,231.665 352.317 C 233.513 348.563,232.742 340.381,229.329 327.523 C 228.954 326.110,228.162 323.138,227.569 320.917 C 226.977 318.697,225.813 314.245,224.983 311.024 C 224.154 307.802,223.232 304.334,222.934 303.317 C 222.637 302.300,221.804 299.349,221.084 296.759 C 220.365 294.169,219.591 291.610,219.366 291.071 C 218.933 290.036,218.803 289.607,216.890 282.936 C 214.324 273.986,209.831 259.249,209.562 258.899 C 209.407 258.697,209.193 258.202,209.086 257.798 C 207.964 253.572,200.786 230.862,200.142 229.506 C 199.809 228.805,199.600 228.174,199.677 228.105 C 199.933 227.875,206.552 226.055,207.133 226.055 C 207.449 226.055,207.706 225.917,207.706 225.748 C 207.706 225.579,209.069 225.147,210.734 224.786 C 212.399 224.426,215.000 223.834,216.514 223.471 C 218.028 223.107,220.835 222.438,222.752 221.985 C 230.035 220.262,241.382 217.151,242.385 216.601 C 243.906 215.769,248.211 214.617,258.532 212.283 C 274.850 208.592,280.499 207.254,281.101 206.940 C 281.404 206.782,283.550 206.220,285.872 205.693 C 288.193 205.165,291.413 204.415,293.028 204.026 C 294.642 203.637,301.470 202.058,308.202 200.518 C 314.933 198.977,320.877 197.489,321.413 197.209 C 321.948 196.930,322.787 196.701,323.278 196.700 C 323.769 196.698,325.420 196.376,326.947 195.983 C 328.475 195.590,331.624 194.842,333.945 194.320 C 336.266 193.799,339.156 193.130,340.367 192.835 C 341.578 192.539,346.202 191.465,350.642 190.448 C 355.083 189.432,359.046 188.439,359.450 188.243 C 359.853 188.047,362.000 187.481,364.220 186.984 C 366.440 186.487,370.073 185.656,372.294 185.136 C 374.514 184.617,377.073 184.039,377.982 183.853 C 383.138 182.796,387.649 179.965,393.786 173.934 C 403.260 164.624,401.599 152.806,390.530 150.777 C 389.381 150.566,388.110 150.262,387.706 150.100 C 386.847 149.756,380.159 148.210,369.358 145.859 C 365.119 144.936,360.248 143.867,358.532 143.484 C 356.817 143.100,353.349 142.351,350.826 141.818 C 348.303 141.286,345.979 140.717,345.661 140.554 C 345.343 140.391,342.371 139.657,339.055 138.924 C 332.249 137.417,327.453 136.342,324.220 135.598 C 323.009 135.319,319.624 134.577,316.697 133.949 C 308.951 132.287,304.851 131.318,304.183 130.991 C 303.582 130.697,302.591 130.450,293.945 128.435 C 279.074 124.968,268.612 122.346,267.523 121.813 C 267.220 121.665,265.734 121.164,264.220 120.701 C 253.637 117.462,251.793 115.961,252.431 111.106 C 253.027 106.570,253.891 98.721,254.335 93.804 C 254.652 90.300,254.886 89.231,255.530 88.362 C 256.700 86.780,256.825 81.556,255.826 75.955 C 255.413 73.639,254.891 70.009,254.667 67.890 C 254.443 65.771,253.949 61.807,253.571 59.083 C 253.192 56.358,252.776 52.642,252.646 50.826 C 252.152 43.923,250.532 36.453,248.785 33.028 C 248.136 31.754,244.911 28.257,244.387 28.257 C 244.236 28.257,243.661 27.390,243.108 26.330 C 239.207 18.860,232.334 13.577,221.691 9.868 C 220.603 9.488,219.530 9.040,219.306 8.872 C 216.721 6.924,199.794 2.550,188.440 0.895 C 184.225 0.281,165.337 -0.187,161.835 0.236 M244.850 30.720 C 247.616 33.421,249.839 40.055,250.650 48.035 C 251.757 58.911,253.182 69.801,254.328 76.147 C 255.107 80.457,255.278 85.486,254.684 86.597 C 253.744 88.352,248.134 90.469,238.218 92.812 C 212.094 98.983,187.246 102.346,163.119 102.976 C 149.223 103.339,81.829 102.473,77.149 101.872 C 70.631 101.034,60.626 98.605,60.311 97.784 C 60.223 97.555,61.823 93.583,63.866 88.959 C 68.719 77.977,68.652 78.116,72.122 71.927 C 73.764 69.000,76.473 64.076,78.144 60.985 C 81.824 54.174,80.130 54.952,93.945 53.731 C 96.082 53.542,108.196 51.584,119.633 49.578 C 121.954 49.171,126.330 48.408,129.358 47.883 C 132.385 47.358,141.633 45.699,149.908 44.197 C 158.183 42.696,167.349 41.046,170.275 40.532 C 173.202 40.018,176.835 39.362,178.349 39.074 C 179.862 38.787,182.670 38.300,184.587 37.992 C 186.505 37.684,189.477 37.180,191.193 36.873 C 208.811 33.715,225.423 31.008,233.945 29.907 C 242.519 28.798,242.912 28.827,244.850 30.720 M304.892 51.340 C 301.354 52.114,298.207 53.630,295.850 55.696 C 291.255 59.724,289.981 60.958,287.999 63.303 C 286.804 64.716,285.367 66.367,284.806 66.972 C 280.289 71.847,277.420 81.188,280.015 82.577 C 281.000 83.104,281.915 82.595,283.665 80.550 C 290.024 73.118,295.103 71.570,306.504 73.588 C 319.391 75.870,326.843 73.365,328.446 66.212 C 330.603 56.590,317.814 48.515,304.892 51.340 M314.307 53.015 C 320.022 54.109,325.252 57.709,326.227 61.222 C 328.728 70.225,320.007 74.696,306.055 71.564 C 296.517 69.423,289.786 71.272,283.773 77.687 C 280.731 80.932,280.375 80.925,281.265 77.636 C 282.618 72.637,283.987 70.507,290.429 63.380 C 298.675 54.256,305.441 51.319,314.307 53.015 M10.411 67.344 C 1.054 69.819,-1.997 74.997,1.112 83.119 C 2.746 87.387,4.652 88.228,10.011 87.046 C 16.280 85.663,18.147 85.429,22.936 85.423 C 30.596 85.413,36.362 86.798,42.432 90.107 C 47.446 92.840,48.760 91.307,46.215 85.695 C 39.733 71.399,24.531 63.607,10.411 67.344 M23.754 68.831 C 32.208 70.728,40.702 77.978,44.845 86.834 C 46.287 89.914,46.264 89.919,41.790 87.568 C 34.018 83.483,22.282 82.194,12.661 84.368 C 4.604 86.189,3.328 85.711,2.023 80.385 C 0.801 75.401,2.156 72.917,7.523 70.300 C 9.762 69.208,11.197 68.810,15.413 68.114 C 16.819 67.881,21.205 68.258,23.754 68.831 M314.679 90.333 C 311.323 90.728,307.560 91.937,305.400 93.313 C 304.448 93.920,302.761 94.999,301.651 95.710 C 298.444 97.766,295.046 101.356,295.046 102.688 C 295.046 105.242,295.572 105.394,300.245 104.182 C 306.718 102.504,312.830 103.528,316.851 106.964 C 321.559 110.985,327.613 112.259,330.971 109.934 C 334.848 107.250,335.741 101.811,332.894 98.228 C 331.942 97.030,331.222 96.374,327.851 93.632 C 326.213 92.299,322.618 90.690,320.759 90.457 C 319.837 90.341,318.670 90.198,318.165 90.138 C 317.661 90.079,316.092 90.166,314.679 90.333 M319.815 92.141 C 327.602 93.580,334.133 100.371,332.314 105.136 C 330.227 110.599,324.366 110.569,317.573 105.059 C 313.467 101.728,306.887 100.658,299.971 102.197 C 296.498 102.969,296.324 102.793,298.500 100.708 C 303.497 95.920,308.784 93.134,314.800 92.119 C 317.270 91.702,317.444 91.703,319.815 92.141 M184.917 111.285 C 194.126 129.260,198.059 136.123,204.782 145.945 C 211.660 155.992,213.655 158.421,223.869 169.174 C 244.806 191.217,255.461 207.104,251.927 211.009 C 250.865 212.183,246.027 213.871,232.323 217.851 C 224.325 220.174,207.263 224.183,201.250 225.152 C 195.553 226.070,195.059 225.699,186.304 213.945 C 181.038 206.875,176.222 200.926,169.522 193.211 C 160.703 183.058,151.333 163.813,145.728 144.339 C 141.684 130.289,137.248 112.047,136.329 105.688 L 136.091 104.037 150.522 104.037 C 163.631 104.037,176.829 103.658,177.217 103.272 C 177.301 103.188,178.127 103.119,179.052 103.120 L 180.734 103.120 184.917 111.285 M27.523 107.003 C 18.490 108.601,9.254 114.772,4.989 122.058 C -0.151 130.838,4.457 138.554,14.450 137.901 C 20.372 137.514,22.372 135.550,23.982 128.543 C 26.101 119.321,29.922 116.491,42.518 114.817 C 48.345 114.043,49.260 113.563,48.638 111.604 C 47.876 109.202,33.186 106.002,27.523 107.003 M35.425 109.016 C 39.923 109.641,46.709 111.578,46.198 112.090 C 46.113 112.174,44.560 112.430,42.747 112.658 C 29.616 114.308,24.128 118.425,22.194 128.073 C 21.013 133.968,19.284 135.759,14.481 136.068 C 7.442 136.519,2.911 131.644,5.075 125.948 C 9.171 115.168,23.238 107.321,35.425 109.016 "
              stroke="none" fill="#040404" fill-rule="evenodd"></path>
        <path id="path4"
              d="M237.156 29.611 C 237.509 29.703,238.087 29.703,238.440 29.611 C 238.794 29.518,238.505 29.443,237.798 29.443 C 237.092 29.443,236.803 29.518,237.156 29.611 M242.972 29.450 C 243.059 29.500,243.871 30.202,244.776 31.009 L 246.422 32.477 244.971 30.917 C 244.174 30.060,243.362 29.358,243.167 29.358 C 242.973 29.358,242.885 29.399,242.972 29.450 M231.284 30.345 C 231.638 30.437,232.216 30.437,232.569 30.345 C 232.922 30.252,232.633 30.177,231.927 30.177 C 231.220 30.177,230.931 30.252,231.284 30.345 M221.376 31.813 C 221.729 31.905,222.307 31.905,222.661 31.813 C 223.014 31.720,222.725 31.645,222.018 31.645 C 221.312 31.645,221.023 31.720,221.376 31.813 M217.615 32.294 C 216.376 32.554,216.370 32.564,217.431 32.569 C 218.037 32.572,219.028 32.448,219.633 32.294 C 221.156 31.906,219.456 31.906,217.615 32.294 M213.394 33.028 C 212.412 33.277,212.393 33.308,213.211 33.308 C 213.716 33.308,214.624 33.182,215.229 33.028 C 216.211 32.778,216.231 32.747,215.413 32.747 C 214.908 32.747,214.000 32.873,213.394 33.028 M158.716 42.569 C 157.734 42.819,157.714 42.849,158.532 42.849 C 159.037 42.849,159.945 42.723,160.550 42.569 C 161.532 42.319,161.552 42.289,160.734 42.289 C 160.229 42.289,159.321 42.415,158.716 42.569 M250.368 47.156 C 250.372 47.963,250.447 48.250,250.535 47.794 C 250.623 47.337,250.619 46.677,250.527 46.326 C 250.436 45.975,250.364 46.349,250.368 47.156 M250.756 51.193 C 250.758 52.404,250.826 52.855,250.908 52.195 C 250.990 51.536,250.988 50.545,250.904 49.993 C 250.821 49.442,250.754 49.982,250.756 51.193 M110.550 51.262 C 110.904 51.354,111.482 51.354,111.835 51.262 C 112.188 51.170,111.899 51.094,111.193 51.094 C 110.486 51.094,110.197 51.170,110.550 51.262 M106.972 51.743 C 105.990 51.993,105.971 52.023,106.789 52.023 C 107.294 52.023,108.202 51.897,108.807 51.743 C 109.789 51.493,109.809 51.463,108.991 51.463 C 108.486 51.463,107.578 51.589,106.972 51.743 M100.550 52.844 C 99.312 53.105,99.306 53.115,100.367 53.119 C 100.972 53.122,101.963 52.998,102.569 52.844 C 104.092 52.456,102.392 52.456,100.550 52.844 M94.404 53.831 C 94.757 53.923,95.335 53.923,95.688 53.831 C 96.041 53.739,95.752 53.663,95.046 53.663 C 94.339 53.663,94.050 53.739,94.404 53.831 M251.109 55.046 C 251.109 55.954,251.181 56.326,251.268 55.872 C 251.356 55.417,251.356 54.674,251.268 54.220 C 251.181 53.766,251.109 54.138,251.109 55.046 M90.005 54.208 C 90.563 54.293,91.389 54.290,91.840 54.203 C 92.291 54.116,91.835 54.047,90.826 54.050 C 89.817 54.053,89.447 54.124,90.005 54.208 M85.963 54.565 C 86.317 54.657,86.894 54.657,87.248 54.565 C 87.601 54.473,87.312 54.397,86.606 54.397 C 85.899 54.397,85.610 54.473,85.963 54.565 M81.195 55.505 C 80.675 56.160,79.945 57.615,80.134 57.615 C 80.222 57.615,80.635 57.037,81.052 56.330 C 81.810 55.047,81.880 54.639,81.195 55.505 M251.461 57.982 C 251.461 58.688,251.537 58.977,251.629 58.624 C 251.721 58.271,251.721 57.693,251.629 57.339 C 251.537 56.986,251.461 57.275,251.461 57.982 M78.532 60.183 C 78.120 60.991,77.866 61.651,77.967 61.651 C 78.068 61.651,78.487 60.991,78.899 60.183 C 79.311 59.376,79.565 58.716,79.464 58.716 C 79.364 58.716,78.944 59.376,78.532 60.183 M251.836 60.734 C 251.840 61.541,251.915 61.828,252.003 61.372 C 252.090 60.915,252.087 60.255,251.995 59.904 C 251.903 59.553,251.832 59.927,251.836 60.734 M252.562 66.055 C 252.562 66.761,252.638 67.050,252.730 66.697 C 252.822 66.344,252.822 65.766,252.730 65.413 C 252.638 65.060,252.562 65.349,252.562 66.055 M72.294 71.560 C 71.882 72.367,71.627 73.028,71.728 73.028 C 71.829 73.028,72.249 72.367,72.661 71.560 C 73.072 70.752,73.327 70.092,73.226 70.092 C 73.125 70.092,72.705 70.752,72.294 71.560 M253.304 71.376 C 253.308 72.183,253.383 72.471,253.471 72.014 C 253.558 71.558,253.555 70.897,253.463 70.546 C 253.371 70.195,253.299 70.569,253.304 71.376 M70.459 74.862 C 70.047 75.670,69.792 76.330,69.893 76.330 C 69.994 76.330,70.414 75.670,70.826 74.862 C 71.238 74.055,71.492 73.394,71.391 73.394 C 71.290 73.394,70.871 74.055,70.459 74.862 M251.743 88.440 C 251.037 88.827,250.591 89.150,250.752 89.159 C 251.141 89.179,253.211 88.103,253.211 87.880 C 253.211 87.640,253.190 87.648,251.743 88.440 M63.179 90.474 C 62.564 91.824,62.681 92.112,63.346 90.885 C 63.657 90.312,63.842 89.775,63.758 89.691 C 63.674 89.607,63.413 89.959,63.179 90.474 M61.721 93.779 C 60.615 96.055,60.738 96.373,61.877 94.184 C 62.386 93.206,62.740 92.342,62.663 92.266 C 62.587 92.189,62.162 92.870,61.721 93.779 M60.355 96.918 C 60.055 97.863,60.404 98.236,61.835 98.499 C 62.886 98.693,62.881 98.683,61.718 98.281 C 60.694 97.928,60.535 97.725,60.716 97.004 C 60.984 95.938,60.689 95.867,60.355 96.918 M211.009 97.982 C 209.771 98.242,209.764 98.252,210.826 98.257 C 211.431 98.260,212.422 98.136,213.028 97.982 C 214.551 97.594,212.850 97.594,211.009 97.982 M202.202 99.450 C 200.964 99.710,200.957 99.720,202.018 99.725 C 202.624 99.727,203.615 99.604,204.220 99.450 C 205.743 99.062,204.043 99.062,202.202 99.450 M66.239 99.817 C 66.642 99.990,67.303 100.127,67.706 100.121 C 68.296 100.112,68.260 100.053,67.523 99.817 C 66.268 99.415,65.303 99.415,66.239 99.817 M198.991 100.069 C 199.344 100.162,199.922 100.162,200.275 100.069 C 200.628 99.977,200.339 99.902,199.633 99.902 C 198.927 99.902,198.638 99.977,198.991 100.069 M195.688 100.436 C 196.041 100.529,196.619 100.529,196.972 100.436 C 197.326 100.344,197.037 100.269,196.330 100.269 C 195.624 100.269,195.335 100.344,195.688 100.436 M189.270 101.177 C 189.727 101.265,190.387 101.261,190.738 101.170 C 191.089 101.078,190.716 101.006,189.908 101.010 C 189.101 101.014,188.814 101.089,189.270 101.177 M185.596 101.543 C 186.050 101.631,186.794 101.631,187.248 101.543 C 187.702 101.456,187.330 101.384,186.422 101.384 C 185.514 101.384,185.142 101.456,185.596 101.543 M181.197 101.911 C 181.653 101.999,182.314 101.995,182.665 101.904 C 183.016 101.812,182.642 101.740,181.835 101.744 C 181.028 101.748,180.740 101.823,181.197 101.911 M81.380 102.278 C 81.837 102.366,82.497 102.362,82.848 102.270 C 83.199 102.179,82.826 102.107,82.018 102.111 C 81.211 102.115,80.924 102.190,81.380 102.278 M176.426 102.278 C 176.883 102.366,177.543 102.362,177.894 102.270 C 178.245 102.179,177.872 102.107,177.064 102.111 C 176.257 102.115,175.970 102.190,176.426 102.278 M88.725 102.654 C 89.588 102.732,90.910 102.731,91.661 102.652 C 92.413 102.573,91.706 102.510,90.092 102.511 C 88.477 102.512,87.862 102.577,88.725 102.654 M170.372 102.649 C 170.930 102.733,171.756 102.731,172.207 102.644 C 172.658 102.557,172.202 102.488,171.193 102.490 C 170.183 102.493,169.814 102.564,170.372 102.649 M136.422 103.021 C 137.280 103.098,138.683 103.098,139.541 103.021 C 140.399 102.944,139.697 102.881,137.982 102.881 C 136.266 102.881,135.564 102.944,136.422 103.021 M163.211 103.018 C 163.867 103.099,164.940 103.099,165.596 103.018 C 166.252 102.936,165.716 102.870,164.404 102.870 C 163.092 102.870,162.555 102.936,163.211 103.018 M178.708 103.392 C 179.613 103.472,180.566 103.714,180.827 103.930 C 181.190 104.232,181.247 104.183,181.070 103.722 C 180.892 103.258,180.403 103.134,178.952 103.183 L 177.064 103.247 178.708 103.392 M172.752 103.745 C 173.206 103.833,173.950 103.833,174.404 103.745 C 174.858 103.658,174.486 103.586,173.578 103.586 C 172.670 103.586,172.298 103.658,172.752 103.745 M136.197 104.862 C 136.238 105.693,136.274 105.730,136.403 105.068 C 136.493 104.605,136.899 104.199,137.362 104.109 C 138.023 103.981,137.987 103.944,137.156 103.903 C 136.277 103.860,136.153 103.983,136.197 104.862 M165.780 104.119 C 166.436 104.200,167.509 104.200,168.165 104.119 C 168.821 104.037,168.284 103.971,166.972 103.971 C 165.661 103.971,165.124 104.037,165.780 104.119 M147.635 104.494 C 150.018 104.558,153.816 104.558,156.076 104.494 C 158.335 104.430,156.385 104.377,151.743 104.378 C 147.101 104.378,145.252 104.430,147.635 104.494 M136.542 106.536 C 136.526 106.901,136.903 108.965,137.379 111.123 C 137.855 113.280,138.629 116.818,139.098 118.984 C 139.568 121.150,140.024 122.851,140.112 122.763 C 140.200 122.675,139.913 120.985,139.474 119.008 C 139.036 117.031,138.203 113.266,137.623 110.642 C 137.044 108.018,136.557 106.170,136.542 106.536 M186.055 114.128 C 187.068 116.147,187.979 117.798,188.080 117.798 C 188.181 117.798,187.435 116.147,186.422 114.128 C 185.409 112.110,184.498 110.459,184.397 110.459 C 184.296 110.459,185.042 112.110,186.055 114.128 M191.560 124.771 C 191.972 125.578,192.391 126.239,192.492 126.239 C 192.593 126.239,192.338 125.578,191.927 124.771 C 191.515 123.963,191.095 123.303,190.994 123.303 C 190.893 123.303,191.148 123.963,191.560 124.771 M193.252 127.798 C 194.440 130.122,197.131 134.679,197.315 134.679 C 197.417 134.679,197.091 133.977,196.590 133.119 C 196.088 132.261,195.067 130.445,194.319 129.083 C 192.948 126.583,192.122 125.589,193.252 127.798 M201.637 141.835 C 202.859 143.840,207.005 149.725,207.196 149.725 C 207.300 149.725,206.110 147.867,204.552 145.596 C 201.774 141.546,200.312 139.660,201.637 141.835 M145.740 144.220 C 145.740 144.523,145.882 145.101,146.055 145.505 C 146.254 145.967,146.370 146.035,146.370 145.688 C 146.370 145.385,146.229 144.807,146.055 144.404 C 145.856 143.941,145.740 143.873,145.740 144.220 M146.447 146.641 C 146.417 147.129,149.674 157.022,150.120 157.798 C 150.294 158.101,150.439 158.266,150.442 158.165 C 150.454 157.760,146.469 146.267,146.447 146.641 M211.713 156.073 C 214.647 159.807,224.435 170.532,223.668 169.174 C 223.497 168.872,222.176 167.385,220.732 165.872 C 217.078 162.042,215.182 159.903,212.522 156.606 C 211.261 155.041,210.153 153.761,210.062 153.761 C 209.971 153.761,210.713 154.802,211.713 156.073 M153.054 164.954 C 153.054 165.156,153.290 165.734,153.578 166.239 C 153.866 166.743,154.102 166.991,154.102 166.789 C 154.102 166.587,153.866 166.009,153.578 165.505 C 153.290 165.000,153.054 164.752,153.054 164.954 M154.495 168.219 C 154.495 168.633,159.285 178.116,159.704 178.532 C 160.031 178.857,154.993 168.487,154.637 168.104 C 154.559 168.020,154.495 168.072,154.495 168.219 M224.220 169.815 C 224.220 169.916,225.689 171.535,227.484 173.413 C 229.280 175.291,232.111 178.408,233.777 180.340 C 235.442 182.272,236.892 183.853,236.998 183.853 C 237.105 183.853,236.867 183.482,236.470 183.028 C 236.073 182.573,234.601 180.881,233.198 179.266 C 231.796 177.651,230.565 176.245,230.462 176.142 C 230.359 176.038,228.913 174.531,227.248 172.792 C 225.583 171.053,224.220 169.714,224.220 169.815 M240.000 187.890 C 240.639 188.697,241.245 189.358,241.346 189.358 C 241.447 189.358,241.006 188.697,240.367 187.890 C 239.728 187.083,239.122 186.422,239.021 186.422 C 238.920 186.422,239.361 187.083,240.000 187.890 M165.731 188.319 C 166.345 189.478,170.595 194.681,171.975 195.963 C 172.890 196.813,172.709 196.521,171.441 195.099 C 170.387 193.917,168.759 191.936,167.822 190.695 C 165.883 188.126,165.244 187.401,165.731 188.319 M243.687 192.661 C 244.925 194.376,246.114 195.945,246.330 196.147 C 247.009 196.782,243.742 192.165,242.562 190.823 C 241.943 190.118,242.449 190.945,243.687 192.661 M176.160 200.826 C 177.609 202.592,178.873 204.037,178.969 204.037 C 179.215 204.037,177.248 201.624,175.229 199.450 C 174.292 198.440,174.711 199.060,176.160 200.826 M248.243 199.174 C 248.809 200.032,249.342 200.734,249.427 200.734 C 249.692 200.734,248.287 198.500,247.736 198.045 C 247.449 197.808,247.678 198.317,248.243 199.174 M250.752 203.608 C 251.398 204.988,251.977 205.992,252.039 205.840 C 252.160 205.543,250.003 201.101,249.737 201.101 C 249.649 201.101,250.106 202.229,250.752 203.608 M252.097 208.624 L 251.927 210.826 249.541 211.999 C 246.757 213.369,246.810 213.599,249.623 212.353 C 252.219 211.203,252.543 210.737,252.392 208.378 L 252.267 206.422 252.097 208.624 M184.237 211.193 C 186.870 214.853,190.114 219.083,190.290 219.083 C 190.519 219.083,184.277 210.626,183.382 209.725 C 182.982 209.321,183.367 209.982,184.237 211.193 M225.223 219.357 C 222.444 220.073,220.239 220.729,220.324 220.813 C 220.487 220.977,230.886 218.411,231.156 218.141 C 231.483 217.814,230.139 218.089,225.223 219.357 M190.955 220.183 C 191.865 221.544,195.281 224.954,195.734 224.954 C 195.950 224.954,195.774 224.707,195.344 224.406 C 194.913 224.104,193.611 222.824,192.451 221.562 C 191.291 220.299,190.618 219.679,190.955 220.183 M216.330 221.639 C 214.917 222.003,213.958 222.320,214.197 222.343 C 214.721 222.394,219.564 221.292,219.784 221.072 C 220.072 220.784,218.908 220.975,216.330 221.639 "
              stroke="none" fill="#612a2d" fill-rule="evenodd"></path>
    </g>
</svg>