<?xml version="1.0" encoding="UTF-8"?>
<svg width="1400px" height="319px" viewBox="0 0 1400 319" version="1.1" xmlns="http://www.w3.org/2000/svg" xmlns:xlink="http://www.w3.org/1999/xlink">
    <!-- Generator: Sketch 53.2 (72643) - https://sketchapp.com -->
    <title>Promo Artboard</title>
    <desc>Created with Sketch.</desc>
    <g id="Promo-Artboard" stroke="none" stroke-width="1" fill="none" fill-rule="evenodd">
        <g id="GC_LogoAdj" transform="translate(60.000000, 22.000000)">
            <g id="Group-4" transform="translate(35.200000, 0.000000)">
                <path d="M0.735078967,119.9912 C0.792915129,103.655067 1.53172546,70.6916 22.5383793,39.802 C29.4553978,29.6314667 40.1345653,14.3686667 60.436924,6.12453333 C88.7953004,-5.39186667 116.362627,5.31346667 121.07161,7.05786667 C127.163997,9.31373333 131.034356,10.7921333 135.06423,14.5245333 C135.06423,14.5245333 151.845113,30.0645333 146.258326,75.1912 C145.391717,82.1921333 145.367463,82.3190667 145.367463,82.3190667 C145.350672,82.4058667 145.330149,82.5085333 145.325485,82.6578667 C145.256455,84.8941333 149.105358,86.5452 150.922533,87.3245333 C160.850763,91.5814667 243.310205,109.214 243.273824,109.724533 C243.273824,109.7264 243.271959,109.728267 243.265429,109.732 C242.273818,110.4292 241.217842,109.6144 243.273824,109.724533 C254.433405,110.318133 256.861591,119.989333 244.206666,129.324533 C242.651619,130.257867 241.097506,131.1912 239.542459,132.124533 C209.396759,139.3056 179.250125,146.486667 149.105358,153.668667 C146.600679,154.264133 144.097866,154.861467 141.59412,155.457867 L107.07899,164.7912 C122.87386,213.210667 132.793694,249.094533 131.226521,253.756533 C130.322598,256.442667 128.534341,258.124533 128.534341,258.124533 C126.379477,260.1508 123.708753,260.6996 122.004452,260.924533 C43.2036133,271.2948 26.8546362,260.924533 26.8546362,260.924533 C19.7342583,253.7248 0.639929151,146.684533 0.735078967,119.9912" id="Fill-1" fill="#0A0B09"></path>
                <path d="M0.735078967,119.9912 C0.792915129,103.655067 1.53172546,70.6916 22.5383793,39.802 C29.4553978,29.6314667 40.1345653,14.3686667 60.436924,6.12453333 C88.7953004,-5.39186667 116.362627,5.31346667 121.07161,7.05786667 C127.163997,9.31373333 131.034356,10.7921333 135.06423,14.5245333 C135.06423,14.5245333 151.845113,30.0645333 146.258326,75.1912 C145.391717,82.1921333 145.367463,82.3190667 145.367463,82.3190667 C145.350672,82.4058667 145.330149,82.5085333 145.325485,82.6578667 C145.256455,84.8941333 149.105358,86.5452 150.922533,87.3245333 C160.850763,91.5814667 243.310205,109.214 243.273824,109.724533 C243.273824,109.7264 243.271959,109.728267 243.265429,109.732 C242.273818,110.4292 241.217842,109.6144 243.273824,109.724533 C254.433405,110.318133 256.861591,119.989333 244.206666,129.324533 C242.651619,130.257867 241.097506,131.1912 239.542459,132.124533 C209.396759,139.3056 179.250125,146.486667 149.105358,153.668667 C146.600679,154.264133 144.097866,154.861467 141.59412,155.457867 L107.07899,164.7912 C122.87386,213.210667 132.793694,249.094533 131.226521,253.756533 C130.322598,256.442667 128.534341,258.124533 128.534341,258.124533 C126.379477,260.1508 123.708753,260.6996 122.004452,260.924533 C43.2036133,271.2948 26.8546362,260.924533 26.8546362,260.924533 C19.7342583,253.7248 0.639929151,146.684533 0.735078967,119.9912 Z" id="Stroke-3" stroke="#0A0B09" stroke-width="3.2"></path>
            </g>
            <path d="M31.8897168,67.2440252 C32.8169139,66.3712163 27.8890331,55.3206736 17.430503,52.134299 C12.1944602,50.5388897 7.04698003,51.3645918 3.87499,53.0231064 C2.78422306,53.592832 0.935251091,54.5927404 0.260186546,56.5783361 C-0.230523023,58.0217594 0.0930018862,59.4154094 0.260186546,60.1335658 C0.477978454,61.0712577 0.873799432,62.7706574 2.06758827,63.6887955 C3.95722678,65.1411068 6.09357562,63.2879434 12.9119986,62.7999881 C15.5471904,62.6106721 17.4476733,62.7288835 18.3342038,62.7999881 C21.227854,63.0328556 23.3497436,63.5812498 23.756409,63.6887955 C29.1975919,65.1242195 31.384548,67.7186484 31.8897168,67.2440252" id="Fill-5" fill="#4EA3CE"></path>
            <path d="M31.8897168,67.2440252 C32.8169139,66.3712163 27.8890331,55.3206736 17.430503,52.134299 C12.1944602,50.5388897 7.04698003,51.3645918 3.87499,53.0231064 C2.78422306,53.592832 0.935251091,54.5927404 0.260186546,56.5783361 C-0.230523023,58.0217594 0.0930018862,59.4154094 0.260186546,60.1335658 C0.477978454,61.0712577 0.873799432,62.7706574 2.06758827,63.6887955 C3.95722678,65.1411068 6.09357562,63.2879434 12.9119986,62.7999881 C15.5471904,62.6106721 17.4476733,62.7288835 18.3342038,62.7999881 C21.227854,63.0328556 23.3497436,63.5812498 23.756409,63.6887955 C29.1975919,65.1242195 31.384548,67.7186484 31.8897168,67.2440252 Z" id="Stroke-6" stroke="#0A0B09" stroke-width="3.2"></path>
            <path d="M35.1973396,83.0722355 C35.316373,82.3995127 31.4201399,81.0592024 27.6991764,80.5045913 C25.7787093,80.2187269 22.9022264,79.806192 19.2637427,80.5045913 C14.7376639,81.372455 11.7965094,83.4231469 9.89103867,84.7839983 C6.35846651,87.3045691 4.87289292,89.6736488 4.26741624,90.7751682 C2.99179122,93.0963186 3.1286327,94.3390584 3.33014583,95.0545752 C3.70692854,96.391462 4.69668608,97.2045493 5.20468664,97.6222195 C7.07641564,99.1593825 9.28931107,99.3023147 9.89103867,99.3339823 C10.4524636,99.3622264 13.5735741,99.5231321 15.5146611,97.6222195 C16.5428467,96.6139912 16.8249651,95.2385897 17.3892019,92.486931 C17.968435,89.6590988 20.4325189,86.5804934 23.0128243,85.6398797 C25.7993293,84.6230926 28.2512286,84.1497902 29.5737172,83.9281169 C33.3837214,83.2887735 35.1186089,83.5130144 35.1973396,83.0722355" id="Fill-8" fill="#4EA3CE"></path>
            <path d="M35.1973396,83.0722355 C35.316373,82.3995127 31.4201399,81.0592024 27.6991764,80.5045913 C25.7787093,80.2187269 22.9022264,79.806192 19.2637427,80.5045913 C14.7376639,81.372455 11.7965094,83.4231469 9.89103867,84.7839983 C6.35846651,87.3045691 4.87289292,89.6736488 4.26741624,90.7751682 C2.99179122,93.0963186 3.1286327,94.3390584 3.33014583,95.0545752 C3.70692854,96.391462 4.69668608,97.2045493 5.20468664,97.6222195 C7.07641564,99.1593825 9.28931107,99.3023147 9.89103867,99.3339823 C10.4524636,99.3622264 13.5735741,99.5231321 15.5146611,97.6222195 C16.5428467,96.6139912 16.8249651,95.2385897 17.3892019,92.486931 C17.968435,89.6590988 20.4325189,86.5804934 23.0128243,85.6398797 C25.7993293,84.6230926 28.2512286,84.1497902 29.5737172,83.9281169 C33.3837214,83.2887735 35.1186089,83.5130144 35.1973396,83.0722355 Z" id="Stroke-9" stroke="#0A0B09" stroke-width="3.2"></path>
            <path d="M201.909225,60.8549574 C201.088196,60.412409 201.961855,56.3808408 203.823045,53.073885 C204.550296,51.7812544 205.583759,50.5907503 207.650684,48.2107147 C210.100373,45.3881307 211.366364,43.9457144 213.392142,42.3749104 C214.882051,41.2194212 216.158568,40.2292797 218.176691,39.4570083 C218.696293,39.2585909 221.322053,38.2859569 224.875059,38.4843742 C227.289343,38.6185977 229.06154,39.2352477 229.659608,39.4570083 C230.983971,39.9481884 232.8021,40.6455671 234.444157,42.3749104 C235.054665,43.0168489 235.86134,43.8844385 236.357977,45.2928126 C236.600075,45.9794922 237.218238,48.0716281 236.357977,50.1559828 C235.321643,52.6634334 232.787746,53.5981348 231.573428,54.0465191 C228.560119,55.1582398 225.727666,54.6777586 222.00433,54.0465191 C219.032168,53.5426946 218.500127,53.084584 216.262872,53.073885 C215.132761,53.0680492 212.849574,53.1730937 210.521413,54.0465191 C204.853636,56.1726971 202.878575,61.3772619 201.909225,60.8549574" id="Fill-11" fill="#4EA3CE"></path>
            <path d="M201.909225,60.8549574 C201.088196,60.412409 201.961855,56.3808408 203.823045,53.073885 C204.550296,51.7812544 205.583759,50.5907503 207.650684,48.2107147 C210.100373,45.3881307 211.366364,43.9457144 213.392142,42.3749104 C214.882051,41.2194212 216.158568,40.2292797 218.176691,39.4570083 C218.696293,39.2585909 221.322053,38.2859569 224.875059,38.4843742 C227.289343,38.6185977 229.06154,39.2352477 229.659608,39.4570083 C230.983971,39.9481884 232.8021,40.6455671 234.444157,42.3749104 C235.054665,43.0168489 235.86134,43.8844385 236.357977,45.2928126 C236.600075,45.9794922 237.218238,48.0716281 236.357977,50.1559828 C235.321643,52.6634334 232.787746,53.5981348 231.573428,54.0465191 C228.560119,55.1582398 225.727666,54.6777586 222.00433,54.0465191 C219.032168,53.5426946 218.500127,53.084584 216.262872,53.073885 C215.132761,53.0680492 212.849574,53.1730937 210.521413,54.0465191 C204.853636,56.1726971 202.878575,61.3772619 201.909225,60.8549574 Z" id="Stroke-12" stroke="#0A0B09" stroke-width="3.2"></path>
            <path d="M214.444722,77.7022984 C213.999496,76.7766279 216.959459,73.316907 219.724086,71.1060717 C220.944498,70.1287308 222.941858,68.5643257 225.883343,67.8079583 C227.428437,67.409986 229.528744,66.9009772 232.042601,67.8079583 C233.642248,68.3840288 234.712199,69.2811156 235.562177,70.0067006 C237.424912,71.5963912 239.644885,73.4906076 239.961646,76.6029273 C240.01356,77.1075386 240.168421,79.1622632 239.081752,81.0004117 C238.942729,81.2356771 238.049637,82.6989401 236.442071,83.199154 C235.938771,83.3552647 234.668204,83.6345049 232.042601,82.0997828 C228.990249,80.3155035 229.116074,79.0094506 226.763237,77.7022984 C224.453516,76.4182329 222.25818,76.5226732 220.603979,76.6029273 C216.757963,76.7865222 214.78876,78.4157902 214.444722,77.7022984" id="Fill-13" fill="#4EA3CE"></path>
            <path d="M214.444722,77.7022984 C213.999496,76.7766279 216.959459,73.316907 219.724086,71.1060717 C220.944498,70.1287308 222.941858,68.5643257 225.883343,67.8079583 C227.428437,67.409986 229.528744,66.9009772 232.042601,67.8079583 C233.642248,68.3840288 234.712199,69.2811156 235.562177,70.0067006 C237.424912,71.5963912 239.644885,73.4906076 239.961646,76.6029273 C240.01356,77.1075386 240.168421,79.1622632 239.081752,81.0004117 C238.942729,81.2356771 238.049637,82.6989401 236.442071,83.199154 C235.938771,83.3552647 234.668204,83.6345049 232.042601,82.0997828 C228.990249,80.3155035 229.116074,79.0094506 226.763237,77.7022984 C224.453516,76.4182329 222.25818,76.5226732 220.603979,76.6029273 C216.757963,76.7865222 214.78876,78.4157902 214.444722,77.7022984 Z" id="Stroke-14" stroke="#0A0B09" stroke-width="3.2"></path>
            <path d="M182.4,147.421687 C173.055393,127.214089 167.319007,118.644748 163.641379,115.027027 C163.279338,114.670686 161.412855,112.862302 158.951724,110.263106 C153.759338,104.779834 153.624276,103.913753 150.510345,100.735265 C145.096607,95.207212 143.909186,96.1952491 138.317241,90.2546402 C135.637572,87.4067685 133.418428,84.5331716 132.689655,83.5851514 C130.752828,81.0650374 129.195862,78.7802612 128,76.9156627" id="Fill-15" fill="#0A0B09"></path>
            <path d="M182.4,147.421687 C173.055393,127.214089 167.319007,118.644748 163.641379,115.027027 C163.279338,114.670686 161.412855,112.862302 158.951724,110.263106 C153.759338,104.779834 153.624276,103.913753 150.510345,100.735265 C145.096607,95.207212 143.909186,96.1952491 138.317241,90.2546402 C135.637572,87.4067685 133.418428,84.5331716 132.689655,83.5851514 C130.752828,81.0650374 129.195862,78.7802612 128,76.9156627" id="Stroke-16" stroke="#0A0B09" stroke-width="3.2"></path>
            <path d="M142.28027,163.430508 C138.742162,162.732584 137.80544,159.863036 129.103708,148.718509 C123.13851,141.079355 122.590458,141.793035 118.614281,136.019644 C114.28392,129.731847 111.840986,124.393152 110.143701,120.636601 C106.815307,113.27365 105.18513,107.611482 102.915559,99.7304185 C101.063552,93.2998858 100.16784,89.1457135 98.3754844,80.8373689 C95.6007356,67.9753767 95.606328,65.2309537 96.626936,62.1000313 C98.6709481,55.8261374 103.373201,52.3216918 104.697662,51.3633218 C106.906649,49.7635669 109.665553,47.7652636 113.281954,48.1119081 C116.89183,48.4566988 119.294686,50.9406751 120.518484,52.2410552 C124.236479,56.1940996 125.134055,60.9210694 125.527385,62.7720025 C126.589936,67.7575654 130.40207,75.0259766 138.02727,89.5627991 C142.810613,98.6858508 147.360008,105.137701 150.011725,108.869227 C158.108548,120.264931 164.178137,123.368975 175.433719,138.242246 C181.404508,146.130725 183.190339,149.439604 182.09703,152.592771 C181.271223,154.972939 144.473412,163.86335 142.28027,163.430508" id="Fill-17" fill="#FBF9F7"></path>
            <path d="M142.28027,163.430508 C138.742162,162.732584 137.80544,159.863036 129.103708,148.718509 C123.13851,141.079355 122.590458,141.793035 118.614281,136.019644 C114.28392,129.731847 111.840986,124.393152 110.143701,120.636601 C106.815307,113.27365 105.18513,107.611482 102.915559,99.7304185 C101.063552,93.2998858 100.16784,89.1457135 98.3754844,80.8373689 C95.6007356,67.9753767 95.606328,65.2309537 96.626936,62.1000313 C98.6709481,55.8261374 103.373201,52.3216918 104.697662,51.3633218 C106.906649,49.7635669 109.665553,47.7652636 113.281954,48.1119081 C116.89183,48.4566988 119.294686,50.9406751 120.518484,52.2410552 C124.236479,56.1940996 125.134055,60.9210694 125.527385,62.7720025 C126.589936,67.7575654 130.40207,75.0259766 138.02727,89.5627991 C142.810613,98.6858508 147.360008,105.137701 150.011725,108.869227 C158.108548,120.264931 164.178137,123.368975 175.433719,138.242246 C181.404508,146.130725 183.190339,149.439604 182.09703,152.592771 C181.271223,154.972939 144.473412,163.86335 142.28027,163.430508 Z" id="Stroke-18" stroke="#0A0B09" stroke-width="3.2"></path>
            <path d="M57.2712015,37.9949296 C59.3388782,37.6944065 62.5468653,37.2912202 66.4895553,37.061628 C73.9278449,36.6285761 170.156397,17.6946873 173.422459,19.3288984 C177.26006,21.2477664 178.356122,27.8555414 178.953472,31.4618187 C179.391343,34.1002622 179.087138,34.6985085 179.875307,40.7948343 C180.080876,42.3805136 180.319632,44.0352573 180.797142,47.3279452 C181.11241,49.5044045 181.262669,51.709796 181.718978,53.8610561 C182.130116,55.7985902 182.732997,58.0049151 182.173443,60.89535 C182.127351,61.130542 182.10707,61.2490713 182.082181,61.3274686 C181.051569,64.5548254 160.547185,68.4000279 147.197165,70.6604843 C144.692538,71.0842032 134.953347,72.6848153 118.91249,73.4603889 C113.742837,73.7105138 109.724556,73.7077139 107.783171,73.7105138 C102.519491,73.7189135 99.8175916,73.5649187 95.066452,73.4603889 C89.7013701,73.3409263 89.5465018,73.4557224 78.4734152,73.4603889 C60.157468,73.4669221 54.8347905,73.154266 48.2003413,71.5937858 C45.3620102,70.9264752 43.0749366,70.217166 41.6,69.7271827 L47.7449546,55.5335325 C50.9197557,49.6873316 54.0954786,43.8411306 57.2712015,37.9949296" id="Fill-19" fill="#C1242B"></path>
            <path d="M57.2712015,37.9949296 C59.3388782,37.6944065 62.5468653,37.2912202 66.4895553,37.061628 C73.9278449,36.6285761 170.156397,17.6946873 173.422459,19.3288984 C177.26006,21.2477664 178.356122,27.8555414 178.953472,31.4618187 C179.391343,34.1002622 179.087138,34.6985085 179.875307,40.7948343 C180.080876,42.3805136 180.319632,44.0352573 180.797142,47.3279452 C181.11241,49.5044045 181.262669,51.709796 181.718978,53.8610561 C182.130116,55.7985902 182.732997,58.0049151 182.173443,60.89535 C182.127351,61.130542 182.10707,61.2490713 182.082181,61.3274686 C181.051569,64.5548254 160.547185,68.4000279 147.197165,70.6604843 C144.692538,71.0842032 134.953347,72.6848153 118.91249,73.4603889 C113.742837,73.7105138 109.724556,73.7077139 107.783171,73.7105138 C102.519491,73.7189135 99.8175916,73.5649187 95.066452,73.4603889 C89.7013701,73.3409263 89.5465018,73.4557224 78.4734152,73.4603889 C60.157468,73.4669221 54.8347905,73.154266 48.2003413,71.5937858 C45.3620102,70.9264752 43.0749366,70.217166 41.6,69.7271827 L47.7449546,55.5335325 C50.9197557,49.6873316 54.0954786,43.8411306 57.2712015,37.9949296 Z" id="Stroke-20" stroke="#0A0B09" stroke-width="3.2"></path>
            <path d="M89.6,75.313253 C90.6666667,75.313253 91.7333333,75.313253 92.8,75.313253 C91.7333333,75.313253 90.6666667,75.313253 89.6,75.313253" id="Fill-21" fill="#FFFFFE"></path>
            <path d="M89.6,75.313253 C90.6666667,75.313253 91.7333333,75.313253 92.8,75.313253 C91.7333333,75.313253 90.6666667,75.313253 89.6,75.313253 Z" id="Stroke-22" stroke="#0A0B09" stroke-width="3.2"></path>
        </g>
        <text id="Goosechase" font-family="Casual-Regular, Casual" font-size="160" font-weight="normal" fill="#000000">
            <tspan x="377" y="147">Goosechase</tspan>
        </text>
        <text id="Search-Yourself..." font-family="Casual-Regular, Casual" font-size="80" font-weight="normal" fill="#C1242B">
            <tspan x="377" y="272">Search Yourself</tspan>
            <tspan x="997.8" y="272" font-family="LucidaGrande, Lucida Grande">...</tspan>
        </text>
    </g>
</svg>